<svg width="175" height="34" viewBox="0 0 175 34" fill="none" xmlns="http://www.w3.org/2000/svg">
<path d="M6.70552e-08 0.360007H19.935V5.49001H5.31V14.625H18.045V19.71H5.31V33.165H6.70552e-08V0.360007ZM24.3422 16.785C24.3422 14.535 24.7772 12.405 25.6472 10.395C26.5172 8.35501 27.7172 6.57001 29.2472 5.04001C30.7772 3.48001 32.5472 2.25001 34.5572 1.35001C36.5972 0.450007 38.7572 6.3777e-06 41.0372 6.3777e-06C43.3472 6.3777e-06 45.5072 0.450007 47.5172 1.35001C49.5572 2.25001 51.3572 3.48001 52.9172 5.04001C54.4772 6.57001 55.6922 8.35501 56.5622 10.395C57.4322 12.405 57.8672 14.535 57.8672 16.785C57.8672 19.125 57.4322 21.3 56.5622 23.31C55.6922 25.32 54.4772 27.105 52.9172 28.665C51.3572 30.195 49.5572 31.395 47.5172 32.265C45.5072 33.105 43.3472 33.525 41.0372 33.525C38.7572 33.525 36.5972 33.105 34.5572 32.265C32.5472 31.395 30.7772 30.21 29.2472 28.71C27.7172 27.18 26.5172 25.395 25.6472 23.355C24.7772 21.315 24.3422 19.125 24.3422 16.785ZM29.8322 16.83C29.8322 18.96 30.3272 20.91 31.3172 22.68C32.3372 24.42 33.7022 25.815 35.4122 26.865C37.1522 27.885 39.0872 28.395 41.2172 28.395C43.3172 28.395 45.2072 27.885 46.8872 26.865C48.5672 25.815 49.9022 24.42 50.8922 22.68C51.8822 20.91 52.3772 18.945 52.3772 16.785C52.3772 14.625 51.8672 12.66 50.8472 10.89C49.8572 9.12001 48.5072 7.72501 46.7972 6.70501C45.0872 5.65501 43.1822 5.13001 41.0822 5.13001C38.9822 5.13001 37.0772 5.65501 35.3672 6.70501C33.6572 7.75501 32.3072 9.16501 31.3172 10.935C30.3272 12.705 29.8322 14.67 29.8322 16.83ZM62.8383 16.785C62.8383 14.535 63.2733 12.405 64.1433 10.395C65.0133 8.35501 66.2133 6.57001 67.7433 5.04001C69.2733 3.48001 71.0433 2.25001 73.0533 1.35001C75.0933 0.450007 77.2533 6.3777e-06 79.5333 6.3777e-06C81.8433 6.3777e-06 84.0033 0.450007 86.0133 1.35001C88.0533 2.25001 89.8533 3.48001 91.4133 5.04001C92.9733 6.57001 94.1883 8.35501 95.0583 10.395C95.9283 12.405 96.3633 14.535 96.3633 16.785C96.3633 19.125 95.9283 21.3 95.0583 23.31C94.1883 25.32 92.9733 27.105 91.4133 28.665C89.8533 30.195 88.0533 31.395 86.0133 32.265C84.0033 33.105 81.8433 33.525 79.5333 33.525C77.2533 33.525 75.0933 33.105 73.0533 32.265C71.0433 31.395 69.2733 30.21 67.7433 28.71C66.2133 27.18 65.0133 25.395 64.1433 23.355C63.2733 21.315 62.8383 19.125 62.8383 16.785ZM68.3283 16.83C68.3283 18.96 68.8233 20.91 69.8133 22.68C70.8333 24.42 72.1983 25.815 73.9083 26.865C75.6483 27.885 77.5833 28.395 79.7133 28.395C81.8133 28.395 83.7033 27.885 85.3833 26.865C87.0633 25.815 88.3983 24.42 89.3883 22.68C90.3783 20.91 90.8733 18.945 90.8733 16.785C90.8733 14.625 90.3633 12.66 89.3433 10.89C88.3533 9.12001 87.0033 7.72501 85.2933 6.70501C83.5833 5.65501 81.6783 5.13001 79.5783 5.13001C77.4783 5.13001 75.5733 5.65501 73.8633 6.70501C72.1533 7.75501 70.8033 9.16501 69.8133 10.935C68.8233 12.705 68.3283 14.67 68.3283 16.83ZM103.359 33.165V0.360007H112.719C115.989 0.360007 118.764 0.855007 121.044 1.84501C123.324 2.83501 125.169 4.15501 126.579 5.80501C127.989 7.42501 129.009 9.24001 129.639 11.25C130.299 13.23 130.629 15.225 130.629 17.235C130.629 19.695 130.194 21.915 129.324 23.895C128.484 25.845 127.299 27.51 125.769 28.89C124.239 30.27 122.484 31.335 120.504 32.085C118.554 32.805 116.484 33.165 114.294 33.165H103.359ZM108.669 28.035H113.304C115.644 28.035 117.699 27.615 119.469 26.775C121.239 25.905 122.619 24.645 123.609 22.995C124.629 21.315 125.139 19.275 125.139 16.875C125.139 14.805 124.794 13.05 124.104 11.61C123.444 10.17 122.559 9.00001 121.449 8.10001C120.369 7.20001 119.184 6.54001 117.894 6.12001C116.634 5.70001 115.404 5.49001 114.204 5.49001H108.669V28.035ZM137.593 0.360007H142.903V33.165H137.593V0.360007ZM151.919 0.360007H173.699V5.49001H157.229V14.13H171.899V19.26H157.229V28.035H174.329V33.165H151.919V0.360007Z" fill="#FE9E0D"/>
</svg>
